HIERARCHY
ROOT hip
{
  OFFSET 0.0 0.0 0.0
  CHANNELS 6 Xposition Yposition Zposition Zrotation Yrotation Xrotation
  JOINT abdomen
  {
    OFFSET 0.0 20.6881 -0.73152
    CHANNELS 3 Zrotation Xrotation Yrotation
    JOINT chest
    {
      OFFSET 0.0 11.7043 -0.48768
      CHANNELS 3 Zrotation Xrotation Yrotation
      JOINT neck
      {
        OFFSET 0.0 22.1894 -2.19456
        CHANNELS 3 Zrotation Xrotation Yrotation
        JOINT head
        {
          OFFSET -0.24384 7.07133 1.2192
          CHANNELS 3 Zrotation Xrotation Yrotation
          JOINT leftEye
          {
            OFFSET 4.14528 8.04674 8.04672
            CHANNELS 3 Zrotation Xrotation Yrotation
            End Site
            {
              OFFSET 1.0 0.0 0.0
            }
          }
          JOINT rightEye
          {
            OFFSET -3.6576 8.04674 8.04672
            CHANNELS 3 Zrotation Xrotation Yrotation
            End Site
            {
              OFFSET 1.0 0.0 0.0
            }
          }
        }
      }
      JOINT rCollar
      {
        OFFSET -2.68224 19.2634 -4.8768
        CHANNELS 3 Zrotation Xrotation Yrotation
        JOINT rShldr
        {
          OFFSET -8.77824 -1.95073 1.46304
          CHANNELS 3 Zrotation Xrotation Yrotation
          JOINT rForeArm
          {
            OFFSET -28.1742 -1.7115 0.48768
            CHANNELS 3 Zrotation Xrotation Yrotation
            JOINT rHand
            {
              OFFSET -22.5879 0.773209 7.07136
              CHANNELS 3 Zrotation Xrotation Yrotation
              JOINT rThumb1
              {
                OFFSET -1.2192 -0.487915 3.41376
                CHANNELS 3 Zrotation Xrotation Yrotation
                JOINT rThumb2
                {
                  OFFSET -3.37035 -0.52449 3.41376
                  CHANNELS 3 Zrotation Xrotation Yrotation
                  End Site
                  {
                    OFFSET -1.78271 -1.18214 1.43049
                  }
                }
              }
              JOINT rIndex1
              {
                OFFSET -7.75947 0.938293 5.60832
                CHANNELS 3 Zrotation Xrotation Yrotation
                JOINT rIndex2
                {
                  OFFSET -2.54057 -0.884171 1.56538
                  CHANNELS 3 Zrotation Xrotation Yrotation
                  End Site
                  {
                    OFFSET -1.62519 -0.234802 1.16502
                  }
                }
              }
              JOINT rMid1
              {
                OFFSET -8.24714 1.18213 3.41376
                CHANNELS 3 Zrotation Xrotation Yrotation
                JOINT rMid2
                {
                  OFFSET -3.10165 -0.590103 1.0647
                  CHANNELS 3 Zrotation Xrotation Yrotation
                  End Site
                  {
                    OFFSET -2.48547 -0.328903 0.83742
                  }
                }
              }
              JOINT rRing1
              {
                OFFSET -8.82822 0.546677 1.51678
                CHANNELS 3 Zrotation Xrotation Yrotation
                JOINT rRing2
                {
                  OFFSET -2.60934 -0.819778 -0.0198488
                  CHANNELS 3 Zrotation Xrotation Yrotation
                  End Site
                  {
                    OFFSET -2.33842 -0.294052 0.168128
                  }
                }
              }
              JOINT rPinky1
              {
                OFFSET -8.27202 -0.0477905 -0.4584
                CHANNELS 3 Zrotation Xrotation Yrotation
                JOINT rPinky2
                {
                  OFFSET -1.82734 -0.647385 -0.700984
                  CHANNELS 3 Zrotation Xrotation Yrotation
                  End Site
                  {
                    OFFSET -1.69225 -0.51767 -0.607171
                  }
                }
              }
            }
          }
        }
      }
      JOINT lCollar
      {
        OFFSET 2.68224 19.2634 -4.8768
        CHANNELS 3 Zrotation Xrotation Yrotation
        JOINT lShldr
        {
          OFFSET 8.77824 -1.95073 1.46304
          CHANNELS 3 Zrotation Xrotation Yrotation
          JOINT lForeArm
          {
            OFFSET 28.1742 -1.7115 0.48768
            CHANNELS 3 Zrotation Xrotation Yrotation
            JOINT lHand
            {
              OFFSET 22.5879 0.773209 7.07136
              CHANNELS 3 Zrotation Xrotation Yrotation
              JOINT lThumb1
              {
                OFFSET 1.2192 -0.487915 3.41376
                CHANNELS 3 Zrotation Xrotation Yrotation
                JOINT lThumb2
                {
                  OFFSET 3.37035 -0.52449 3.41376
                  CHANNELS 3 Zrotation Xrotation Yrotation
                  End Site
                  {
                    OFFSET 1.78271 -1.18214 1.43049
                  }
                }
              }
              JOINT lIndex1
              {
                OFFSET 7.75947 0.938293 5.60832
                CHANNELS 3 Zrotation Xrotation Yrotation
                JOINT lIndex2
                {
                  OFFSET 2.54057 -0.884171 1.56538
                  CHANNELS 3 Zrotation Xrotation Yrotation
                  End Site
                  {
                    OFFSET 1.62519 -0.234802 1.16502
                  }
                }
              }
              JOINT lMid1
              {
                OFFSET 8.24714 1.18213 3.41376
                CHANNELS 3 Zrotation Xrotation Yrotation
                JOINT lMid2
                {
                  OFFSET 3.10165 -0.590103 1.0647
                  CHANNELS 3 Zrotation Xrotation Yrotation
                  End Site
                  {
                    OFFSET 2.48547 -0.328903 0.83742
                  }
                }
              }
              JOINT lRing1
              {
                OFFSET 8.82822 0.546677 1.51678
                CHANNELS 3 Zrotation Xrotation Yrotation
                JOINT lRing2
                {
                  OFFSET 2.60934 -0.819778 -0.0198488
                  CHANNELS 3 Zrotation Xrotation Yrotation
                  End Site
                  {
                    OFFSET 2.33842 -0.294052 0.168128
                  }
                }
              }
              JOINT lPinky1
              {
                OFFSET 8.27202 -0.0477905 -0.4584
                CHANNELS 3 Zrotation Xrotation Yrotation
                JOINT lPinky2
                {
                  OFFSET 1.82734 -0.647385 -0.700984
                  CHANNELS 3 Zrotation Xrotation Yrotation
                  End Site
                  {
                    OFFSET 1.69225 -0.51767 -0.607171
                  }
                }
              }
            }
          }
        }
      }
    }
  }
  JOINT rButtock
  {
    OFFSET -8.77824 4.35084 1.2192
    CHANNELS 3 Zrotation Xrotation Yrotation
    JOINT rThigh
    {
      OFFSET 0.0 -1.70687 -2.19456
      CHANNELS 3 Zrotation Xrotation Yrotation
      JOINT rShin
      {
        OFFSET 0.0 -36.8199 0.73152
        CHANNELS 3 Zrotation Xrotation Yrotation
        JOINT rFoot
        {
          OFFSET 0.73152 -45.1104 -5.12064
          CHANNELS 3 Zrotation Xrotation Yrotation
          End Site
          {
            OFFSET -1.1221 -3.69964 12.103
          }
        }
      }
    }
  }
  JOINT lButtock
  {
    OFFSET 8.77824 4.35084 1.2192
    CHANNELS 3 Zrotation Xrotation Yrotation
    JOINT lThigh
    {
      OFFSET 0.0 -1.70687 -2.19456
      CHANNELS 3 Zrotation Xrotation Yrotation
      JOINT lShin
      {
        OFFSET 0.0 -36.8199 0.73152
        CHANNELS 3 Zrotation Xrotation Yrotation
        JOINT lFoot
        {
          OFFSET -0.73152 -45.1104 -5.12064
          CHANNELS 3 Zrotation Xrotation Yrotation
          End Site
          {
            OFFSET 1.1221 -3.69964 12.103
          }
        }
      }
    }
  }
}
MOTION
Frames: 9
Frame Time: 0.00833333
-0.9348700000000001 74.4479 46.893100000000004 -6.6486 6.0649 2.7408 5.98549 12.9469 3.30697 -1.42749 -5.64217 0.879169 1.03654 -4.51312 -1.65493 -1.96883 -22.5897 -4.11699 -0.0 0.0 0.0 -0.0 0.0 0.0 0.0 0.0 0.0 0.0 0.0 0.0 0.0 0.0 0.0 -0.218355 -13.1932 -1.888 1.24495e-09 -5.7625e-10 6.99827e-10 2.14052e-09 -9.81405e-10 1.2224e-09 1.24496e-09 -5.76243e-10 6.99821e-10 7.73091 5.47488 0.417314 1.24495e-09 -5.76251e-10 6.99833e-10 2.90554 0.965183 0.102902 1.24495e-09 -5.76251e-10 6.99833e-10 10.2786 0.731801 0.0259123 1.24495e-09 -5.76252e-10 6.99843e-10 2.22167 -0.733487 -0.20892 0.0 0.0 0.0 0.0 0.0 0.0 0.0 0.0 0.0 0.12736 -10.1231 1.43786 6.21061e-10 -1.16789e-09 7.97072e-10 1.06084e-09 -2.0359e-09 1.3863e-09 6.21063e-10 -1.16789e-09 7.97079e-10 -7.73091 5.47488 -0.417314 6.21063e-10 -1.16788e-09 7.97072e-10 -2.90554 0.965183 -0.102902 6.21057e-10 -1.16788e-09 7.97068e-10 -10.2786 0.731801 -0.0259123 6.21066e-10 -1.16788e-09 7.9706e-10 -2.22167 -0.733487 0.20892 -2.03217e-16 0.0 -3.88251e-19 6.37835 12.1175 -1.97875 -0.235339 36.7622 0.91205 -3.38443 -0.0912017 -29.0192 2.03217e-16 0.0 3.88251e-19 12.9446 -56.0395 3.40013 0.663333 48.6769 -0.401724 0.162251 6.3106 -2.63534
-0.6374900000000001 74.7946 48.234100000000005 -6.592 5.9387 2.5313 5.77232 12.8083 3.26576 -1.44775 -5.59224 0.855556 1.07535 -4.41311 -1.59452 -2.05168 -22.1342 -4.01055 -0.0 0.0 0.0 -0.0 0.0 0.0 0.0 0.0 0.0 0.0 0.0 0.0 0.0 0.0 0.0 -0.229012 -13.3768 -1.91601 9.34421e-10 -2.33144e-10 5.06893e-10 1.60593e-09 -3.89792e-10 8.85921e-10 9.34425e-10 -2.33137e-10 5.06888e-10 7.73091 5.47488 0.417314 9.3442e-10 -2.33144e-10 5.06898e-10 2.90554 0.965183 0.102902 9.34423e-10 -2.33145e-10 5.06899e-10 10.2786 0.731801 0.0259123 9.34416e-10 -2.33145e-10 5.06906e-10 2.22167 -0.733487 -0.20892 0.0 0.0 0.0 0.0 0.0 0.0 0.0 0.0 0.0 0.0844373 -8.48608 1.20101 3.94654e-10 -1.03876e-09 6.61882e-10 6.70658e-10 -1.81115e-09 1.15202e-09 3.94656e-10 -1.03875e-09 6.6189e-10 -7.73091 5.47488 -0.417314 3.94656e-10 -1.03875e-09 6.61885e-10 -2.90554 0.965183 -0.102902 3.94649e-10 -1.03875e-09 6.61881e-10 -10.2786 0.731801 -0.0259123 3.94657e-10 -1.03875e-09 6.61873e-10 -2.22167 -0.733487 0.20892 -2.03217e-16 0.0 -3.88251e-19 5.6838 10.6821 -1.9011 -0.305891 39.605 0.891274 -1.76138 2.9143 -27.6008 2.03217e-16 0.0 3.88251e-19 12.3935 -55.0888 3.39521 0.682495 49.1869 -0.404759 0.118022 5.52234 -2.43619
-0.30650999999999984 75.3188 49.56420000000001 -6.2946 5.7209 2.3969 5.38506 12.572 3.30029 -1.40241 -5.57184 0.850943 1.16572 -4.25083 -1.49656 -2.20893 -21.6075 -3.8589 -0.0 0.0 0.0 -0.0 0.0 0.0 0.0 0.0 0.0 0.0 0.0 0.0 0.0 0.0 0.0 -0.233142 -13.3325 -1.91034 1.9448e-10 5.63755e-10 1.33233e-10 3.31524e-10 9.8413e-10 2.33414e-10 1.94484e-10 5.63761e-10 1.3323e-10 7.73091 5.47488 0.417314 1.94479e-10 5.63756e-10 1.33235e-10 2.90554 0.965183 0.102902 1.94484e-10 5.63756e-10 1.33237e-10 10.2786 0.731801 0.0259123 1.94476e-10 5.63756e-10 1.3324e-10 2.22167 -0.733487 -0.20892 0.0 0.0 0.0 0.0 0.0 0.0 0.0 0.0 0.0 0.0470369 -6.62932 0.935101 -6.61316e-11 -7.16007e-10 2.96437e-10 -1.21433e-10 -1.24779e-09 5.17972e-10 -6.61292e-11 -7.16002e-10 2.96446e-10 -7.73091 5.47488 -0.417314 -6.61292e-11 -7.16004e-10 2.96441e-10 -2.90554 0.965183 -0.102902 -6.61384e-11 -7.16004e-10 2.9644e-10 -10.2786 0.731801 -0.0259123 -6.613e-11 -7.16006e-10 2.96433e-10 -2.22167 -0.733487 0.20892 -2.03217e-16 0.0 -3.88251e-19 4.7851 9.02064 -1.66921 -0.384731 42.4024 0.86035 -0.135491 6.2811 -26.0023 2.03217e-16 0.0 3.88251e-19 11.81 -53.9118 3.48121 0.69094 49.3722 -0.398545 0.0856445 4.66242 -2.06487
0.061980000000000146 75.7085 50.833600000000004 -5.7716 5.4672 2.3223 4.84036 12.2986 3.32932 -1.28344 -5.57285 0.844024 1.29181 -4.07544 -1.36538 -2.3734 -21.0205 -3.65246 -0.0 0.0 0.0 -0.0 0.0 0.0 0.0 0.0 0.0 0.0 0.0 0.0 0.0 0.0 0.0 -0.217666 -12.868 -1.84144 -5.88204e-10 1.44091e-09 -3.05295e-10 -1.01649e-09 2.4964e-09 -5.31597e-10 -5.882e-10 1.44091e-09 -3.05296e-10 7.73091 5.47488 0.417314 -5.88205e-10 1.44091e-09 -3.05297e-10 2.90554 0.965183 0.102902 -5.88198e-10 1.44091e-09 -3.05293e-10 10.2786 0.731801 0.0259123 -5.88207e-10 1.44091e-09 -3.05293e-10 2.22167 -0.733487 -0.20892 0.0 0.0 0.0 0.0 0.0 0.0 0.0 0.0 0.0 0.023271 -4.79265 0.674574 -5.4557e-10 -3.17919e-10 -1.02024e-10 -9.45001e-10 -5.53267e-10 -1.73483e-10 -5.45568e-10 -3.17913e-10 -1.02013e-10 -7.73091 5.47488 -0.417314 -5.45567e-10 -3.17916e-10 -1.02018e-10 -2.90554 0.965183 -0.102902 -5.45579e-10 -3.17916e-10 -1.02017e-10 -10.2786 0.731801 -0.0259123 -5.45569e-10 -3.17919e-10 -1.02023e-10 -2.22167 -0.733487 0.20892 -2.03217e-16 0.0 -3.88251e-19 3.76589 7.219 -1.39689 -0.467836 45.1784 0.835529 1.22423 9.53131 -24.509 2.03217e-16 0.0 3.88251e-19 11.0621 -52.6223 3.47158 0.691834 49.3478 -0.387321 0.0729772 3.82145 -1.55499
0.4491799999999997 76.1036 52.0647 -5.0761 5.2092 2.2907 4.15341 12.0489 3.27187 -1.0828 -5.58717 0.813496 1.43815 -3.93613 -1.20524 -2.47852 -20.3844 -3.38182 -0.0 0.0 0.0 -0.0 0.0 0.0 0.0 0.0 0.0 0.0 0.0 0.0 0.0 0.0 0.0 -0.173596 -11.7905 -1.68109 -1.02697e-09 2.02478e-09 -6.92833e-10 -1.77189e-09 3.50305e-09 -1.20559e-09 -1.02696e-09 2.02479e-09 -6.92833e-10 7.73091 5.47488 0.417314 -1.02697e-09 2.02479e-09 -6.92836e-10 2.90554 0.965183 0.102902 -1.02696e-09 2.02479e-09 -6.92832e-10 10.2786 0.731801 0.0259123 -1.02697e-09 2.02479e-09 -6.92833e-10 2.22167 -0.733487 -0.20892 0.0 0.0 0.0 0.0 0.0 0.0 0.0 0.0 0.0 0.0127021 -3.21606 0.452468 -8.27935e-10 3.72284e-11 -3.36261e-10 -1.42962e-09 6.49883e-11 -5.79985e-10 -8.27934e-10 3.72344e-11 -3.36248e-10 -7.73091 5.47488 -0.417314 -8.27932e-10 3.72311e-11 -3.36255e-10 -2.90554 0.965183 -0.102902 -8.27945e-10 3.72315e-11 -3.36252e-10 -10.2786 0.731801 -0.0259123 -8.27936e-10 3.72276e-11 -3.36258e-10 -2.22167 -0.733487 0.20892 -2.03217e-16 0.0 -3.88251e-19 2.69546 5.36372 -1.19511 -0.555854 47.9568 0.836385 2.15833 12.137 -23.3687 2.03217e-16 0.0 3.88251e-19 10.0449 -51.3336 3.2007 0.688461 49.2286 -0.375441 0.0829129 3.09034 -0.939419
0.8399399999999999 76.5 53.263400000000004 -4.2898 4.9733 2.2717 3.22568 11.8127 3.10136 -0.764242 -5.62444 0.75078 1.60618 -3.84496 -1.00772 -2.49068 -19.6363 -3.02312 -0.0 0.0 0.0 -0.0 0.0 0.0 0.0 0.0 0.0 0.0 0.0 0.0 0.0 0.0 0.0 -0.110274 -9.88862 -1.40149 -9.37944e-10 2.25488e-09 -1.11282e-09 -1.61806e-09 3.90037e-09 -1.93143e-09 -9.3794e-10 2.25489e-09 -1.11282e-09 7.73091 5.47488 0.417314 -9.37946e-10 2.25489e-09 -1.11282e-09 2.90554 0.965183 0.102902 -9.37938e-10 2.25489e-09 -1.11281e-09 10.2786 0.731801 0.0259123 -9.37945e-10 2.25489e-09 -1.11281e-09 2.22167 -0.733487 -0.20892 0.0 0.0 0.0 0.0 0.0 0.0 0.0 0.0 0.0 0.00618499 -1.85719 0.261479 -8.17274e-10 4.23507e-10 -3.2707e-10 -1.41002e-09 7.34349e-10 -5.64046e-10 -8.17273e-10 4.23512e-10 -3.27058e-10 -7.73091 5.47488 -0.417314 -8.17271e-10 4.2351e-10 -3.27064e-10 -2.90554 0.965183 -0.102902 -8.17284e-10 4.23511e-10 -3.27062e-10 -10.2786 0.731801 -0.0259123 -8.17274e-10 4.23508e-10 -3.27068e-10 -2.22167 -0.733487 0.20892 -2.03217e-16 0.0 -3.88251e-19 1.50037 3.43166 -1.07205 -0.660454 50.8009 0.876928 2.70232 13.917 -22.5914 2.03217e-16 0.0 3.88251e-19 8.65467 -50.0603 2.59487 0.680458 49.0081 -0.362501 0.118868 2.48992 -0.17491
1.2267800000000002 76.9009 54.43856000000001 -3.4581 4.7672 2.2495 2.0817 11.5662 2.86296 -0.343569 -5.68504 0.66819 1.80227 -3.77601 -0.773723 -2.45831 -18.7915 -2.59121 -0.0 0.0 0.0 -0.0 0.0 0.0 0.0 0.0 0.0 0.0 0.0 0.0 0.0 0.0 0.0 -0.054468 -7.31751 -1.03076 -5.54274e-10 2.3174e-09 -1.58892e-09 -9.56632e-10 4.00915e-09 -2.75194e-09 -5.54269e-10 2.3174e-09 -1.58892e-09 7.73091 5.47488 0.417314 -5.54277e-10 2.3174e-09 -1.58892e-09 2.90554 0.965183 0.102902 -5.54269e-10 2.3174e-09 -1.58892e-09 10.2786 0.731801 0.0259123 -5.54274e-10 2.3174e-09 -1.58891e-09 2.22167 -0.733487 -0.20892 0.0 0.0 0.0 0.0 0.0 0.0 0.0 0.0 0.0 0.00140404 -0.623682 0.0880037 -6.4145e-10 8.68795e-10 -1.88514e-10 -1.10592e-09 1.50455e-09 -3.23654e-10 -6.41449e-10 8.68798e-10 -1.88504e-10 -7.73091 5.47488 -0.417314 -6.41447e-10 8.68799e-10 -1.8851e-10 -2.90554 0.965183 -0.102902 -6.41458e-10 8.688e-10 -1.8851e-10 -10.2786 0.731801 -0.0259123 -6.41449e-10 8.68799e-10 -1.88516e-10 -2.22167 -0.733487 0.20892 -2.03217e-16 0.0 -3.88251e-19 0.170975 1.39224 -0.974872 -0.788155 53.6788 0.952125 3.00973 15.1217 -22.0227 2.03217e-16 0.0 3.88251e-19 7.01595 -48.7424 1.78514 0.666787 48.6373 -0.346939 0.181961 1.97274 0.739072
1.5963800000000004 77.3094 55.595600000000005 -2.6468 4.5908 2.202 0.920966 11.3495 2.5833 0.109255 -5.74696 0.57577 2.01893 -3.72152 -0.521485 -2.43371 -17.9778 -2.13291 -0.0 0.0 0.0 -0.0 0.0 0.0 0.0 0.0 0.0 0.0 0.0 0.0 0.0 0.0 0.0 -0.0200466 -4.43489 -0.622323 -1.148e-10 2.20878e-09 -1.91567e-09 -1.98789e-10 3.82213e-09 -3.31357e-09 -1.14794e-10 2.20879e-09 -1.91567e-09 7.73091 5.47488 0.417314 -1.14804e-10 2.20879e-09 -1.91566e-09 2.90554 0.965183 0.102902 -1.14796e-10 2.20879e-09 -1.91566e-09 10.2786 0.731801 0.0259123 -1.14798e-10 2.20879e-09 -1.91565e-09 2.22167 -0.733487 -0.20892 0.0 0.0 0.0 0.0 0.0 0.0 0.0 0.0 0.0 -0.000162432 0.319386 -0.0447578 -4.2046e-10 1.18552e-09 -1.3254e-11 -7.24387e-10 2.0517e-09 -1.96673e-11 -4.2046e-10 1.18552e-09 -1.32458e-11 -7.73091 5.47488 -0.417314 -4.20456e-10 1.18552e-09 -1.32524e-11 -2.90554 0.965183 -0.102902 -4.20466e-10 1.18553e-09 -1.32544e-11 -10.2786 0.731801 -0.0259123 -4.20457e-10 1.18553e-09 -1.32604e-11 -2.22167 -0.733487 0.20892 -2.03217e-16 0.0 -3.88251e-19 -1.14202 -0.678672 -0.921151 -0.933892 56.4723 1.05459 3.14927 15.8544 -21.6584 2.03217e-16 0.0 3.88251e-19 5.36804 -47.381 0.914043 0.649541 48.1678 -0.331236 0.263796 1.52786 1.7061
1.9420600000000001 77.7282 56.74335000000001 -1.8974 4.4333 2.1184 -0.0557663 11.2027 2.28873 0.524431 -5.78818 0.483582 2.24865 -3.67376 -0.269253 -2.46228 -17.3237 -1.6925 -0.0 0.0 0.0 -0.0 0.0 0.0 0.0 0.0 0.0 0.0 0.0 0.0 0.0 0.0 0.0 -0.00313713 -1.59908 -0.224795 1.41635e-10 1.92551e-09 -1.88756e-09 2.44284e-10 3.33207e-09 -3.26273e-09 1.41641e-10 1.92552e-09 -1.88756e-09 7.73091 5.47488 0.417314 1.41631e-10 1.92551e-09 -1.88755e-09 2.90554 0.965183 0.102902 1.41639e-10 1.92551e-09 -1.88755e-09 10.2786 0.731801 0.0259123 1.41637e-10 1.92552e-09 -1.88754e-09 2.22167 -0.733487 -0.20892 0.0 0.0 0.0 0.0 0.0 0.0 0.0 0.0 0.0 0.000798739 0.806969 -0.11342 -2.74301e-10 1.18611e-09 1.06049e-10 -4.7245e-10 2.0519e-09 1.8706e-10 -2.74302e-10 1.18611e-09 1.06056e-10 -7.73091 5.47488 -0.417314 -2.74297e-10 1.18612e-09 1.06049e-10 -2.90554 0.965183 -0.102902 -2.74306e-10 1.18612e-09 1.06046e-10 -10.2786 0.731801 -0.0259123 -2.74298e-10 1.18612e-09 1.0604e-10 -2.22167 -0.733487 0.20892 -2.03217e-16 0.0 -3.88251e-19 -2.29098 -2.7052 -0.928522 -1.08789 59.0632 1.17306 3.17604 16.2245 -21.5002 2.03217e-16 0.0 3.88251e-19 3.93108 -45.9812 0.109379 0.630633 47.6511 -0.317729 0.353023 1.14448 2.62976
